<!DOCTYPE svg PUBLIC "-//W3C//DTD SVG 1.1//EN" "http://www.w3.org/Graphics/SVG/1.1/DTD/svg11.dtd">
<!-- Uploaded to: SVG Repo, www.svgrepo.com, Transformed by: SVG Repo Mixer Tools -->
<svg width="64px" height="64px" viewBox="-7.4 -7.4 34.80 34.80" version="1.1" xmlns="http://www.w3.org/2000/svg" xmlns:xlink="http://www.w3.org/1999/xlink" fill="#FFBF00" transform="rotate(0)matrix(1, 0, 0, 1, 0, 0)" stroke="#FFBF00">
<g id="SVGRepo_bgCarrier" stroke-width="0"/>
<g id="SVGRepo_tracerCarrier" stroke-linecap="round" stroke-linejoin="round"/>
<g id="SVGRepo_iconCarrier"> <!-- Uploaded to: SVG Repo, www.svgrepo.com, Transformed by: SVG Repo Mixer Tools --> <title>ic_fluent_spinner_ios_20_regular</title> <desc>Created with Sketch.</desc> <g id="ðŸ”-System-Icons" stroke-width="2" fill="none" fill-rule="evenodd"> <g id="ic_fluent_spinner_ios_20_regular" fill="#212121" fill-rule="nonzero"> <path d="M10,3 C6.13401,3 3,6.13401 3,10 C3,10.2761 2.77614,10.5 2.5,10.5 C2.22386,10.5 2,10.2761 2,10 C2,5.58172 5.58172,2 10,2 C14.4183,2 18,5.58172 18,10 C18,14.4183 14.4183,18 10,18 C9.72386,18 9.5,17.7761 9.5,17.5 C9.5,17.2239 9.72386,17 10,17 C13.866,17 17,13.866 17,10 C17,6.13401 13.866,3 10,3 Z" id="ðŸŽ¨-Color"> </path> </g> </g> </g>
</svg>